<?xml version="1.0" encoding="utf-8"?>
<!-- Generator: Adobe Illustrator 24.0.1, SVG Export Plug-In . SVG Version: 6.00 Build 0)  -->
<svg version="1.1" id="Capa_1" xmlns="http://www.w3.org/2000/svg" xmlns:xlink="http://www.w3.org/1999/xlink" x="0px" y="0px"
	 viewBox="0 0 843.3 230" style="enable-background:new 0 0 843.3 230;" xml:space="preserve">
<style type="text/css">
	.st0{fill:#FFFFFF;}
	.st1{fill:#888B8D;}
	.st2{fill:#0033CC;}
	.st3{fill:#1232C3;}
</style>
<g>
	<g>
		<path class="st1" d="M613.9,186.6c-2.1,0-3.6,0.3-4.7,0.8c-1.3,0.7-2.3,2-3,3.8l-9,21.6l-9-21.6c-1.2-3-3.9-4.6-8.1-4.6h-8.5
			l19.2,41.1c0.7,1.6,2.5,2.5,5.9,2.5c3.1,0,5.1-0.9,5.9-2.5l18.3-41.1H613.9z"/>
		<path class="st1" d="M820.4,187.5h-13l2.3,7.9h10.6c5.4,0,8.8,3.6,8.8,8.7h-7.8c-10.4,0-18.9,1.8-18.9,13.1c0,2,0.3,3.7,1,5.2
			l-10.1-0.1v-27.9c0-4.6-2.7-6.9-8-6.9h-0.2h-5.3h-19.2V182c0-4.7-2.8-6.9-8.4-6.9h-5v12.5h-4.7l-2.9,7.8h7.6v18.8
			c0,3.5,0.3,6.2,1.1,8.5l-14.5-0.1v-15.7c0-12.8-7.5-19.2-22.6-19.2h-13l2.4,7.9h10.6c5.4,0,8.8,3.6,8.8,8.7h-7.8
			c-10.4,0-18.9,1.8-18.9,13.1c0,2,0.3,3.7,1,5.2h-9.3v-49.1c0-4.8-2.7-7.1-8.2-7.1h-4.9v56.2l-15.6-0.1h-13.1
			c-5.5,0-9.2-4.7-9.2-10.2v-4.8c0-3.3,0.4-6,1.4-8.1c1.3-3.1,3.3-4.8,6-4.8h1.1c4.6,0,7.1,3.5,7.4,10.4h-9.3l-2.7,7.2h23.8
			c0.4-2.3,0.8-4.1,0.8-5.6c0-13.1-6.6-19.6-19.9-19.6c-13.5,0-21.7,6.9-21.7,20.5v2.8c0,14,9.1,20.1,22.6,20.1h11.4h4.7H680h5h27.6
			h4.6h0.7l-2.7-7.6h-1.4c-4.4,0-7.2-0.7-7.2-5.3c0-5.4,2.9-5.6,8-5.6h6.2v11.5c0,4.8,2.7,7.2,8,7.2h2.2h3H763c0,0,2.1,0,3.1,0h7.5
			l-2.7-7.9h-4.3c-5.2,0-5.9-1.8-5.9-7.2v-19.9H780v27.9c0,4.7,2.7,7.1,8.2,7.1h2.6h2.7h28.3h1.1h4.1l-2.7-7.6h-1.4
			c-4.4,0-7.2-0.7-7.2-5.3c0-5.4,3-5.6,8-5.6h6.2v11.5c0,4.8,2.7,7.2,8.1,7.2h5.2v-23.6C843,193.8,835.4,187.5,820.4,187.5z"/>
		<path class="st1" d="M786.8,182.4h6.6v-7.5c0-3.8-2.5-6.2-6.9-6.2h-6.7v7.4C779.7,180,782.2,182.4,786.8,182.4z"/>
	</g>
	<path class="st2" d="M130.6,49.5v-8.6h-17.4v94.3h18.6V83.4c0-15.7,9.5-25.8,24.2-25.8h8.5V38.8H156c-9.5,0-18.5,3.6-24.7,9.9
		L130.6,49.5z"/>
	<path class="st2" d="M282,38.8c-16.5,0-25.6,8.1-30.3,14.8l-0.4,0.6l-0.4-0.6c-6.9-9.6-17.8-14.8-30.6-14.8
		c-7.2,0-18.3,2.5-25.6,9.6l-0.8,0.8V41h-17.6v94.4h18.6V82.7c0-15.3,9.2-25.5,22.8-25.5c13.2,0,21.3,8.7,21.3,22.7v55.5h18.6V82.7
		c0-15.5,8.8-25.5,22.4-25.5c13,0,20.8,8.5,20.8,22.7v55.5h18.6V76.7C319.5,54.4,304.1,38.8,282,38.8z"/>
	<polygon class="st2" points="470.1,59.4 422.7,135.4 499.1,135.4 499.1,117.8 455.3,117.8 455.7,117 503.1,41 426.8,41 426.8,58.6 
		470.5,58.6 	"/>
	<path class="st2" d="M653,38.8c-11.1,0-21.2,3.7-29.5,10.6l-0.8,0.7V10.6L604.1,0v135.4h18.6v-9l0.8,0.7
		c8.3,6.9,18.4,10.5,29.5,10.5c28.6,0,50-21.1,50-49.1C703,60.1,681.5,38.8,653,38.8z M674.8,110.3c-5.5,5.5-13.2,8.6-21.8,8.6
		c-17.3,0-30.2-13.2-30.2-30.5c0-17.7,13-31,30.2-31s30.2,13.3,30.2,31C683.3,96.9,680.3,104.7,674.8,110.3z"/>
	<path class="st2" d="M825.9,103.4V11.1L807.3,0v103.4c0,21.2,11.8,33.3,32.4,33.3h3.6v-18.1h-2.4
		C831.3,118.6,825.9,113.2,825.9,103.4z"/>
	<path class="st2" d="M50.2,138.7c27.6,0,50.2-22.4,50.2-50c0.1-26.6-21.5-48.8-48.3-50V58c16.1,0.9,29.1,14.7,29.1,30.8
		c0,17.1-14,31-31.1,31S19,105.9,19,88.8c0-7.6,2.7-14.8,7.8-20.5L13.3,54.8C4.8,64.1,0,76.1,0,88.8C0,116.3,22.5,138.7,50.2,138.7z
		"/>
	<path class="st2" d="M550.2,38.9c-11.5,0-20.9,3.4-28.3,10.1l13,12.9c4.1-3.2,9.1-4.7,15.3-4.7c8.4,0,20.8,4.3,20.8,13.7
		c0,4.4-3.3,7.3-8.5,7.3h-21.7c-19.2,0-32.5,11.7-32.5,28.5c0,18.1,15.7,31.3,37.3,31.3c14.3,0,23.1-7,26.2-9.9l0.8-0.8v8.5h17.6
		V74.6C590.3,53.9,573.4,38.9,550.2,38.9z M571.5,95.4c-0.6,15-10.2,24-25.7,24c-10.7,0-17.7-5.1-17.7-13c0-6.9,5.3-11.5,13.1-11.5
		h30.4L571.5,95.4z"/>
	<path class="st2" d="M753.5,38.9c-11.5,0-20.9,3.4-28.3,10.1l13,12.9c4.1-3.2,9.1-4.7,15.3-4.7c8.4,0,20.8,4.3,20.8,13.7
		c0,4.4-3.3,7.3-8.5,7.3h-21.7c-19.2,0-32.5,11.7-32.5,28.5c0,18.1,15.7,31.3,37.3,31.3c14.3,0,23.1-7,26.2-9.9l0.8-0.8v8.5h17.6
		V74.6C793.4,53.9,776.7,38.9,753.5,38.9z M774.6,95.4c-0.6,15-10.2,24-25.7,24c-10.7,0-17.7-5.1-17.7-13c0-6.9,5.3-11.5,13.1-11.5
		h30.4L774.6,95.4z"/>
	<path class="st2" d="M372.2,38.9c-11.5,0-20.9,3.4-28.3,10.1l13,12.9c4.1-3.2,9.1-4.7,15.3-4.7c8.4,0,20.8,4.3,20.8,13.7
		c0,4.4-3.3,7.3-8.5,7.3h-21.7c-19.2,0-32.5,11.7-32.5,28.5c0,18.1,15.7,31.3,37.3,31.3c14.3,0,23.1-7,26.2-9.9l0.8-0.8v8.5h17.6
		V74.6C412.2,53.9,395.4,38.9,372.2,38.9z M393.4,95.4c-0.6,15-10.2,24-25.7,24c-10.7,0-17.7-5.1-17.7-13c0-6.9,5.3-11.5,13.1-11.5
		h30.4L393.4,95.4z"/>
</g>
</svg>
